<svg xmlns="http://www.w3.org/2000/svg" viewBox="0 0 128 128">
  <defs>
    <radialGradient id="glow" cx="50%" cy="45%" r="62%">
      <stop offset="0%" stop-color="#00f090" stop-opacity="0.34"/>
      <stop offset="100%" stop-color="#00d97e" stop-opacity="0"/>
    </radialGradient>
    <linearGradient id="bg" x1="18" y1="12" x2="112" y2="120" gradientUnits="userSpaceOnUse">
      <stop stop-color="#10151f"/>
      <stop offset="1" stop-color="#070a10"/>
    </linearGradient>
  </defs>
  <rect x="8" y="8" width="112" height="112" rx="28" fill="url(#bg)"/>
  <rect x="8" y="8" width="112" height="112" rx="28" fill="url(#glow)"/>
  <rect x="12" y="12" width="104" height="104" rx="24" fill="none" stroke="#00d97e" stroke-opacity="0.42" stroke-width="4"/>
  <circle cx="64" cy="64" r="34" fill="none" stroke="#00d97e" stroke-width="8"/>
  <path d="M30 64h68" stroke="#00d97e" stroke-width="8" stroke-linecap="round"/>
  <path d="M64 30c11 12 16 23 16 34S75 86 64 98C53 86 48 75 48 64s5-22 16-34Z" fill="none" stroke="#00d97e" stroke-width="8" stroke-linejoin="round"/>
  <path d="M41 70l10 17 13-30 13 30 10-17" fill="none" stroke="#edf2ff" stroke-width="9" stroke-linecap="round" stroke-linejoin="round"/>
</svg>
